<svg xmlns="http://www.w3.org/2000/svg" x="0px" y="0px"
width="32" height="32"
viewBox="0 0 172 172"
style=" fill:#000000;"><g fill="none" fill-rule="nonzero" stroke="none" stroke-width="1" stroke-linecap="butt" stroke-linejoin="miter" stroke-miterlimit="10" stroke-dasharray="" stroke-dashoffset="0" font-family="none" font-weight="none" font-size="none" text-anchor="none" style="mix-blend-mode: normal"><path d="M0,172v-172h172v172z" fill="none"></path><g fill="#00BC5E"><path d="M5.73333,86c0,1.58312 1.28355,2.86667 2.86667,2.86667h74.53333v74.53333c0,1.58312 1.28355,2.86667 2.86667,2.86667c1.58312,0 2.86667,-1.28355 2.86667,-2.86667v-74.53333h74.53333c1.58312,0 2.86667,-1.28355 2.86667,-2.86667c0,-1.58312 -1.28355,-2.86667 -2.86667,-2.86667h-74.53333v-74.53333c0,-1.58312 -1.28355,-2.86667 -2.86667,-2.86667c-1.58312,0 -2.86667,1.28355 -2.86667,2.86667v74.53333h-74.53333c-1.58312,0 -2.86667,1.28355 -2.86667,2.86667z"></path></g></g></svg>